<?xml version="1.0" encoding="UTF-8"?>
<svg width="63px" height="80px" viewBox="0 0 63 80" version="1.1" xmlns="http://www.w3.org/2000/svg" xmlns:xlink="http://www.w3.org/1999/xlink">
    <!-- Generator: Sketch 43.2 (39069) - http://www.bohemiancoding.com/sketch -->
    <title>noun_936127_cc</title>
    <desc>Created with Sketch.</desc>
    <defs></defs>
    <g id="Page-1" stroke="none" stroke-width="1" fill="none" fill-rule="evenodd">
        <g id="noun_936127_cc" fill-rule="nonzero" fill="#555555">
            <path d="M36.4,55.9 C34.8,55.3 33.2,55.7 32,56.9 C30.8,55.7 29.2,55.3 27.6,55.9 C25.7,56.6 24.1,58.9 24.7,61.9 C25.7,66.7 31.3,69.2 31.5,69.3 C31.6,69.4 31.8,69.4 31.9,69.4 C32,69.4 32.2,69.4 32.3,69.3 C32.5,69.2 38.1,66.7 39.1,61.9 C39.9,59 38.3,56.6 36.4,55.9 Z M37.3,61.5 C36.6,64.6 33.2,66.7 32,67.3 C30.8,66.7 27.4,64.7 26.7,61.5 C26.3,59.5 27.2,58.2 28.3,57.8 C28.5,57.7 28.8,57.7 29,57.7 C29.8,57.7 30.5,58.2 31.1,59.1 C31.5,59.7 32.5,59.7 32.8,59.1 C33.5,57.9 34.5,57.4 35.6,57.8 C36.7,58.2 37.7,59.5 37.3,61.5 Z" id="Shape"></path>
            <path d="M59.4,72.3 L57.9,72.3 L57.9,41.1 C57.9,40.5 57.5,40.1 56.9,40.1 L54.2,40.1 L54.2,19.2 C54.2,18.6 53.8,18.2 53.2,18.2 L50.3,18.2 L50.3,1.4 C50.3,0.8 49.9,0.4 49.3,0.4 L14,0.4 C13.4,0.4 13,0.8 13,1.4 L13,18.2 L10,18.2 C9.4,18.2 9,18.6 9,19.2 L9,40.1 L6.3,40.1 C5.7,40.1 5.3,40.5 5.3,41.1 L5.3,72.3 L3.8,72.3 C2.2,72.3 0.9,73.6 0.9,75.2 L0.9,76.7 C0.9,78.3 2.2,79.6 3.8,79.6 L59.4,79.6 C61,79.6 62.3,78.3 62.3,76.7 L62.3,75.2 C62.4,73.6 61.1,72.3 59.4,72.3 Z M48.3,2.4 L48.3,6.1 C46.8,6.2 45.9,7.1 45.2,7.7 C44.5,8.3 44.1,8.8 43,8.8 C41.9,8.8 41.5,8.3 40.8,7.7 C40,7 39.1,6 37.2,6 C35.3,6 34.4,6.9 33.6,7.7 C32.9,8.3 32.5,8.8 31.4,8.8 C30.4,8.8 29.9,8.3 29.2,7.7 C28.4,7 27.5,6 25.6,6 C23.8,6 22.8,6.9 22,7.7 C21.3,8.3 20.9,8.8 19.8,8.8 C18.8,8.8 18.3,8.3 17.6,7.7 C16.9,7.1 16.1,6.3 14.7,6.1 L14.7,2.4 L48.3,2.4 L48.3,2.4 Z M15,8.2 C15.6,8.4 16,8.7 16.5,9.2 C17.3,9.9 18.2,10.9 20.1,10.9 C22,10.9 22.9,10 23.7,9.2 C24.4,8.6 24.8,8.1 25.9,8.1 C26.9,8.1 27.4,8.6 28.1,9.2 C28.9,9.9 29.8,10.9 31.7,10.9 C33.6,10.9 34.5,10 35.3,9.2 C36,8.6 36.4,8.1 37.5,8.1 C38.5,8.1 39,8.6 39.7,9.2 C40.5,9.9 41.4,10.9 43.3,10.9 C45.2,10.9 46.1,10 46.9,9.2 C47.5,8.7 47.9,8.3 48.6,8.2 L48.6,18.2 L15,18.2 L15,8.2 Z M52.2,20.2 L52.2,23.9 C50.2,24 49.1,25 48.2,25.8 C47.4,26.6 46.7,27.2 45.4,27.2 C44.1,27.2 43.4,26.6 42.6,25.8 C41.7,24.9 40.6,23.9 38.4,23.9 C36.3,23.9 35.1,25 34.2,25.8 C33.4,26.6 32.8,27.2 31.4,27.2 C30.1,27.2 29.4,26.6 28.6,25.8 C27.7,24.9 26.6,23.9 24.4,23.9 C22.3,23.9 21.1,25 20.2,25.8 C19.4,26.6 18.8,27.2 17.4,27.2 C16.1,27.2 15.4,26.6 14.6,25.8 C14,25 12.9,24 11,23.9 L11,20.2 L52.2,20.2 Z M11,25.9 C12.1,26 12.7,26.6 13.4,27.3 C14.3,28.2 15.4,29.2 17.6,29.2 C19.8,29.2 20.9,28.1 21.8,27.3 C22.6,26.5 23.2,25.9 24.6,25.9 C25.9,25.9 26.6,26.5 27.4,27.3 C28.3,28.2 29.4,29.2 31.6,29.2 C33.7,29.2 34.9,28.1 35.8,27.3 C36.6,26.5 37.2,25.9 38.6,25.9 C39.9,25.9 40.6,26.5 41.4,27.3 C42.3,28.2 43.4,29.2 45.6,29.2 C47.8,29.2 48.9,28.1 49.8,27.3 C50.6,26.6 51.2,26 52.4,25.9 L52.4,40.1 L11,40.1 L11,25.9 Z M55.9,42.1 L55.9,46.8 C53.6,46.9 52.3,48 51.3,49 C50.3,49.9 49.5,50.7 47.9,50.7 C46.3,50.7 45.5,50 44.5,49 C43.4,47.9 42.2,46.8 39.7,46.8 C37.3,46.8 36,48 34.9,49 C33.9,49.9 33.1,50.7 31.5,50.7 C29.9,50.7 29.1,50 28.1,49 C27,47.9 25.8,46.8 23.3,46.8 C20.8,46.8 19.7,48 18.6,49 C17.6,49.9 16.8,50.7 15.2,50.7 C13.6,50.7 12.8,50 11.8,49 C10.8,48 9.6,46.9 7.4,46.8 L7.4,42 L55.9,42 L55.9,42.1 Z M7.4,48.8 C8.8,48.9 9.5,49.6 10.4,50.5 C11.5,51.6 12.7,52.7 15.2,52.7 C17.7,52.7 18.9,51.5 20,50.5 C21,49.6 21.8,48.8 23.4,48.8 C25,48.8 25.8,49.5 26.8,50.5 C27.9,51.6 29.1,52.7 31.6,52.7 C34,52.7 35.3,51.5 36.4,50.5 C37.4,49.6 38.2,48.8 39.8,48.8 C41.4,48.8 42.2,49.5 43.2,50.5 C44.3,51.6 45.5,52.7 48,52.7 C50.5,52.7 51.7,51.5 52.8,50.5 C53.7,49.6 54.5,48.9 56,48.8 L56,72.3 L7.4,72.3 L7.4,48.8 Z M60.4,76.7 C60.4,77.2 60,77.6 59.5,77.6 L3.8,77.6 C3.3,77.6 2.9,77.2 2.9,76.7 L2.9,75.2 C2.9,74.7 3.3,74.3 3.8,74.3 L59.4,74.3 C59.9,74.3 60.3,74.7 60.3,75.2 L60.3,76.7 L60.4,76.7 Z" id="Shape"></path>
        </g>
    </g>
</svg>