<?xml version="1.0" encoding="UTF-8"?>
<svg width="66px" height="76px" viewBox="0 0 66 76" version="1.1" xmlns="http://www.w3.org/2000/svg" xmlns:xlink="http://www.w3.org/1999/xlink">
    <!-- Generator: Sketch 43.2 (39069) - http://www.bohemiancoding.com/sketch -->
    <title>noun_936113_cc</title>
    <desc>Created with Sketch.</desc>
    <defs></defs>
    <g id="Page-1" stroke="none" stroke-width="1" fill="none" fill-rule="evenodd">
        <g id="noun_936113_cc" fill-rule="nonzero" fill="#555555">
            <path d="M8.5,75.5 L57.5,75.5 C58.1,75.5 58.5,75.1 58.5,74.5 L58.5,33.2 L64.2,35.9 C64.3,36 64.5,36 64.6,36 C65,36 65.3,35.8 65.5,35.4 C65.7,34.9 65.5,34.3 65,34.1 L48,26 L48,9.5 L49.5,10.2 C49.6,10.3 49.8,10.3 49.9,10.3 C50.3,10.3 50.6,10.1 50.8,9.7 C51,9.2 50.8,8.6 50.3,8.4 L33.3,0.2 C33,0.1 32.7,0.1 32.4,0.2 L15.4,8.4 C14.9,8.6 14.7,9.2 14.9,9.7 C15.1,10.2 15.7,10.4 16.2,10.2 L17.7,9.5 L17.7,26 L0.7,34.1 C0.2,34.3 2.87547763e-14,34.9 0.2,35.4 C0.4,35.9 1,36.1 1.5,35.9 L7.2,33.2 L7.2,74.5 C7.5,75 8,75.5 8.5,75.5 Z M40.2,73.5 L25.8,73.5 L25.8,58.2 C25.8,54.2 29,51 33,51 C37,51 40.2,54.2 40.2,58.2 L40.2,73.5 Z M56.5,32.5 L56.5,73.5 L42.2,73.5 L42.2,58.2 C42.2,53.1 38.1,49 33,49 C27.9,49 23.8,53.1 23.8,58.2 L23.8,73.5 L9.5,73.5 L9.5,32.5 L9.5,32.3 L33,21 L56.5,32.3 L56.5,32.5 Z M19.9,8.6 L33,2.3 L46.1,8.6 L46.1,25 L33.4,19 C33.1,18.9 32.8,18.9 32.5,19 L19.9,25 L19.9,8.6 Z" id="Shape"></path>
            <path d="M32,29.2 L32,33.4 L29,33.4 C28.4,33.4 28,33.8 28,34.4 C28,35 28.4,35.4 29,35.4 L32,35.4 L32,42.1 C32,42.7 32.4,43.1 33,43.1 C33.6,43.1 34,42.7 34,42.1 L34,35.4 L37,35.4 C37.6,35.4 38,35 38,34.4 C38,33.8 37.6,33.4 37,33.4 L34,33.4 L34,29.2 C34,28.6 33.6,28.2 33,28.2 C32.4,28.2 32,28.6 32,29.2 Z" id="Shape"></path>
            <path d="M36.8,15.5 L36.8,11.2 C36.8,9.1 35.1,7.4 33,7.4 C30.9,7.4 29.2,9.1 29.2,11.2 L29.2,15.5 C29.2,16.1 29.6,16.5 30.2,16.5 L35.8,16.5 C36.4,16.5 36.8,16.1 36.8,15.5 Z M34.8,14.5 L31.2,14.5 L31.2,11.2 C31.2,10.2 32,9.4 33,9.4 C34,9.4 34.8,10.2 34.8,11.2 L34.8,14.5 L34.8,14.5 Z" id="Shape"></path>
        </g>
    </g>
</svg>