<?xml version="1.0" encoding="UTF-8"?>
<svg width="90px" height="20px" viewBox="0 0 90 20" version="1.1" xmlns="http://www.w3.org/2000/svg" xmlns:xlink="http://www.w3.org/1999/xlink">
    <!-- Generator: Sketch 43.2 (39069) - http://www.bohemiancoding.com/sketch -->
    <title>noun_1070837_cc</title>
    <desc>Created with Sketch.</desc>
    <defs></defs>
    <g id="Page-1" stroke="none" stroke-width="1" fill="none" fill-rule="evenodd">
        <g id="noun_1070837_cc">
            <g id="Group">
                <path d="M6.431,12.738 C6.589,12.68 6.741,12.61 6.888,12.53 C6.722,12.582 6.568,12.65 6.431,12.738 Z" id="Shape"></path>
                <path d="M9.854,13.705 C9.668,13.238 9.378,12.818 9.005,12.476 C9.18,12.947 9.476,13.373 9.854,13.705 Z" id="Shape"></path>
                <path d="M20.997,4.979 C20.737,4.899 20.471,4.838 20.2,4.805 C20.022,4.783 19.561,4.673 19.75,4.941 C20.01,5.308 20.777,5.354 21.176,5.319 C21.329,5.305 21.478,5.275 21.623,5.231 C21.422,5.134 21.215,5.046 20.997,4.979 Z" id="Shape"></path>
                <path d="M22.445,2.421 C22.551,2.965 22.669,3.496 22.817,4.02 C22.843,3.775 22.838,3.527 22.797,3.286 C22.76,3.067 22.701,2.825 22.6,2.626 C22.557,2.542 22.506,2.46 22.44,2.392 C22.441,2.4 22.443,2.408 22.445,2.421 Z" id="Shape"></path>
                <path d="M19.132,12.845 C19,13.013 18.701,13.522 19.111,13.47 C19.338,13.441 19.616,13.169 19.81,13.047 C20.28,12.749 20.75,12.452 21.22,12.154 C20.46,11.984 19.63,12.211 19.132,12.845 Z" id="Shape"></path>
                <path d="M7.515,5.211 C7.311,5.188 7.034,5.132 6.831,5.171 C6.649,5.207 6.578,5.154 6.802,5.293 C7.16,5.514 7.601,5.464 7.994,5.29 C7.835,5.258 7.676,5.229 7.515,5.211 Z" id="Shape"></path>
                <path d="M21.985,12.887 C21.829,13.347 21.753,13.82 21.788,14.314 C21.799,14.469 21.939,15.556 22.258,15.377 C22.579,15.197 22.399,14.279 22.354,14.03 C22.282,13.63 22.154,13.251 21.985,12.887 Z" id="Shape"></path>
                <path d="M37.519,2.897 C37.434,3.351 37.476,3.815 37.632,4.25 C37.776,3.812 37.732,3.306 37.519,2.897 Z" id="Shape"></path>
                <path d="M68.894,5.323 C69.274,5.345 70.004,5.292 70.25,4.941 C70.355,4.792 70.343,4.816 70.19,4.778 C70.069,4.748 69.821,4.799 69.706,4.816 C69.442,4.854 69.181,4.92 68.927,5.002 C68.736,5.064 68.554,5.143 68.375,5.23 C68.543,5.281 68.716,5.313 68.894,5.323 Z" id="Shape"></path>
                <path d="M67.555,2.421 C67.602,2.176 67.556,2.388 67.523,2.437 C67.458,2.532 67.409,2.611 67.364,2.719 C67.276,2.93 67.22,3.157 67.192,3.383 C67.165,3.594 67.164,3.807 67.185,4.018 C67.333,3.494 67.451,2.964 67.555,2.421 Z" id="Shape"></path>
                <path d="M52.481,2.897 C52.267,3.307 52.224,3.812 52.368,4.25 C52.524,3.815 52.567,3.351 52.481,2.897 Z" id="Shape"></path>
                <path d="M34.636,4.656 C35.249,5.037 35.97,5.202 36.691,5.125 C36.077,4.739 35.355,4.579 34.636,4.656 Z" id="Shape"></path>
                <path d="M2.566,6.869 C2.229,6.505 1.817,6.216 1.359,6.017 C1.562,6.292 1.825,6.521 2.146,6.68 C2.286,6.75 2.427,6.809 2.566,6.869 Z" id="Shape"></path>
                <path d="M55.364,4.656 C54.645,4.578 53.923,4.739 53.309,5.125 C54.03,5.202 54.75,5.037 55.364,4.656 Z" id="Shape"></path>
                <path d="M9.226,2.067 C8.911,2.875 8.929,3.777 9.31,4.579 C9.608,3.77 9.58,2.851 9.226,2.067 Z" id="Shape"></path>
                <path d="M83.571,12.739 C83.433,12.65 83.277,12.582 83.111,12.529 C83.259,12.61 83.412,12.68 83.571,12.739 Z" id="Shape"></path>
                <path d="M80.774,2.067 C80.42,2.851 80.391,3.77 80.69,4.579 C81.071,3.777 81.089,2.875 80.774,2.067 Z" id="Shape"></path>
                <path d="M80.146,13.705 C80.524,13.373 80.82,12.947 80.995,12.476 C80.622,12.818 80.332,13.238 80.146,13.705 Z" id="Shape"></path>
                <path d="M87.434,6.871 C87.573,6.811 87.715,6.751 87.855,6.68 C88.176,6.52 88.439,6.292 88.641,6.017 C88.183,6.217 87.771,6.506 87.434,6.871 Z" id="Shape"></path>
                <path d="M83.198,5.293 C83.422,5.154 83.351,5.207 83.169,5.171 C82.966,5.131 82.689,5.187 82.485,5.211 C82.324,5.229 82.165,5.258 82.006,5.29 C82.399,5.464 82.84,5.514 83.198,5.293 Z" id="Shape"></path>
                <path d="M70.191,13.047 C70.326,13.133 70.804,13.541 70.979,13.511 C71.285,13.459 70.958,12.959 70.868,12.845 C70.369,12.211 69.54,11.984 68.78,12.155 C69.251,12.452 69.721,12.749 70.191,13.047 Z" id="Shape"></path>
                <path d="M87.598,9.268 C87.784,9.64 88.022,10.193 88.462,10.312 C88.582,10.344 88.796,10.36 88.886,10.251 C89.05,10.053 88.81,9.717 88.697,9.55 C88.331,9.013 87.839,8.574 87.291,8.225 C87.238,8.568 87.467,9.005 87.598,9.268 Z" id="Shape"></path>
                <path d="M36.696,16.493 C36.05,16.671 35.502,17.143 35.234,17.754 C35.786,17.513 36.273,17.165 36.691,16.715 C36.673,16.649 36.674,16.575 36.696,16.493 Z" id="Shape"></path>
                <path d="M38.444,17.867 C38.604,18.023 38.78,18.158 38.974,18.271 C38.967,18.267 39.107,18.34 39.183,18.392 C39.178,18.367 39.172,18.334 39.153,18.292 C38.884,17.701 38.425,17.276 37.86,17.038 C38.003,17.346 38.196,17.625 38.444,17.867 Z" id="Shape"></path>
                <path d="M1.258,9.617 C1.15,9.79 0.948,10.112 1.153,10.276 C1.266,10.366 1.468,10.343 1.595,10.297 C2,10.149 2.225,9.624 2.403,9.268 C2.537,8.999 2.759,8.568 2.703,8.228 C2.13,8.59 1.61,9.051 1.258,9.617 Z" id="Shape"></path>
                <path d="M67.631,14.114 C67.595,14.335 67.438,15.227 67.741,15.377 C68.087,15.549 68.208,14.405 68.217,14.232 C68.24,13.765 68.162,13.318 68.014,12.884 C67.833,13.275 67.701,13.683 67.631,14.114 Z" id="Shape"></path>
                <path d="M53.309,16.716 C53.726,17.166 54.214,17.514 54.766,17.755 C54.498,17.144 53.95,16.672 53.304,16.494 C53.326,16.575 53.327,16.649 53.309,16.716 Z" id="Shape"></path>
                <path d="M50.847,18.292 C50.833,18.323 50.822,18.354 50.814,18.387 C50.887,18.356 50.961,18.309 51.026,18.271 C51.241,18.147 51.434,17.994 51.607,17.817 C51.832,17.588 52.007,17.324 52.139,17.038 C51.575,17.277 51.118,17.702 50.847,18.292 Z" id="Shape"></path>
                <path d="M89.983,5.396 C90.078,5.003 89.747,4.75 89.386,4.799 C87.83,5.012 86.537,6.063 85.911,7.477 C83.726,7.511 81.541,7.57 79.358,7.653 C80.011,7.162 80.554,6.527 80.929,5.78 C81.356,6.118 81.878,6.325 82.429,6.368 C83.067,6.418 83.883,6.245 84.202,5.627 C84.532,4.989 84.131,4.329 83.459,4.223 C82.938,4.141 82.363,4.203 81.812,4.326 C82.134,3.156 81.942,1.867 81.224,0.855 C81.065,0.631 80.671,0.489 80.462,0.757 C79.412,2.105 79.219,3.897 80.007,5.424 C80.009,5.428 80.012,5.431 80.015,5.436 C79.355,6.616 78.187,7.473 76.879,7.753 C76.584,7.735 76.287,7.738 75.991,7.767 C75.933,7.773 75.882,7.788 75.834,7.809 C75.719,7.815 75.604,7.821 75.489,7.827 C75.391,7.816 75.294,7.806 75.196,7.788 C75.052,7.762 74.928,7.795 74.829,7.861 C71.365,8.046 67.904,8.293 64.449,8.602 C65.604,7.9 66.616,6.965 67.404,5.853 C67.937,6.161 68.545,6.325 69.174,6.295 C69.964,6.258 71.03,5.925 71.286,5.074 C71.594,4.052 70.517,3.749 69.735,3.841 C69.191,3.905 68.665,4.049 68.169,4.262 C68.574,3.018 68.886,1.384 67.642,1.356 C66.86,1.338 66.45,2.228 66.301,2.868 C66.105,3.706 66.217,4.533 66.553,5.317 C66.559,5.33 66.566,5.34 66.573,5.352 C65.273,7.167 63.321,8.413 61.144,8.875 C60.978,8.889 60.813,8.906 60.647,8.929 C60.584,8.938 60.532,8.957 60.486,8.982 C58.441,9.193 56.397,9.426 54.357,9.68 C52.792,9.875 51.229,10.084 49.668,10.304 C51.146,9.273 52.297,7.772 52.823,6.033 C54.241,6.322 55.763,5.843 56.748,4.762 C57.014,4.47 56.873,4.09 56.534,3.951 C55.537,3.543 54.419,3.576 53.443,3.973 C53.565,3.217 53.444,2.424 53.085,1.721 C52.975,1.505 52.624,1.398 52.421,1.547 C51.219,2.432 50.977,4.116 51.859,5.301 C51.866,5.383 51.901,5.461 51.954,5.529 C51.132,8.546 48.245,10.817 45.089,10.805 C45.057,10.805 45.028,10.809 44.999,10.814 C44.97,10.809 44.941,10.805 44.909,10.805 C41.753,10.817 38.867,8.547 38.045,5.53 C38.099,5.462 38.134,5.383 38.141,5.3 C39.021,4.115 38.779,2.432 37.578,1.548 C37.375,1.398 37.024,1.507 36.914,1.722 C36.555,2.425 36.434,3.218 36.556,3.974 C35.58,3.578 34.462,3.544 33.465,3.952 C33.126,4.091 32.985,4.471 33.251,4.763 C34.236,5.844 35.758,6.323 37.176,6.034 C37.703,7.773 38.854,9.275 40.332,10.306 C36.737,9.799 33.132,9.36 29.52,8.987 C29.473,8.96 29.419,8.94 29.352,8.93 C29.186,8.907 29.021,8.89 28.855,8.876 C26.678,8.414 24.725,7.168 23.426,5.353 C23.432,5.341 23.44,5.331 23.446,5.318 C23.782,4.534 23.894,3.708 23.698,2.869 C23.549,2.229 23.139,1.34 22.357,1.357 C21.114,1.385 21.425,3.018 21.83,4.262 C21.353,4.057 20.85,3.917 20.329,3.851 C19.909,3.798 19.431,3.76 19.063,4.016 C18.717,4.257 18.594,4.68 18.713,5.076 C18.963,5.903 19.983,6.241 20.755,6.293 C21.408,6.337 22.042,6.174 22.596,5.854 C23.385,6.967 24.399,7.903 25.555,8.605 C22.098,8.295 18.635,8.046 15.169,7.861 C15.071,7.796 14.948,7.763 14.804,7.789 C14.712,7.806 14.619,7.816 14.527,7.826 C14.405,7.82 14.284,7.814 14.162,7.808 C14.116,7.789 14.066,7.774 14.01,7.768 C13.713,7.74 13.417,7.737 13.122,7.754 C11.814,7.473 10.646,6.617 9.986,5.437 C9.988,5.433 9.991,5.43 9.994,5.425 C10.782,3.899 10.589,2.106 9.539,0.758 C9.33,0.49 8.936,0.632 8.777,0.856 C8.059,1.868 7.867,3.157 8.189,4.327 C7.638,4.205 7.063,4.142 6.542,4.224 C5.871,4.33 5.47,4.99 5.799,5.628 C6.118,6.246 6.935,6.419 7.572,6.369 C8.123,6.325 8.645,6.119 9.072,5.781 C9.447,6.527 9.989,7.161 10.641,7.652 C8.458,7.569 6.274,7.512 4.09,7.478 C3.465,6.064 2.171,5.013 0.615,4.8 C0.254,4.751 -0.077,5.004 0.018,5.397 C0.22,6.232 0.737,6.965 1.473,7.416 C1.593,7.489 1.738,7.545 1.886,7.599 C1.111,8.135 0.406,8.856 0.159,9.685 C-0.237,11.016 1.301,11.709 2.3,11.009 C2.809,10.652 3.118,10.053 3.367,9.499 C3.513,9.174 3.643,8.808 3.671,8.442 C5.898,8.474 8.125,8.532 10.351,8.614 C9.303,9.234 8.432,10.152 7.917,11.272 C7.896,11.317 7.885,11.361 7.877,11.405 C6.613,11.497 5.188,11.889 4.945,13.307 C4.895,13.599 5.071,13.938 5.413,13.921 C6.446,13.871 7.379,13.485 8.126,12.828 C8.528,13.887 9.338,14.722 10.439,15.163 C10.723,15.277 11.073,14.986 11.053,14.695 C10.955,13.281 10.22,12.032 9.019,11.275 C9.018,11.275 9.018,11.274 9.017,11.274 C9.894,9.806 11.449,8.854 13.144,8.731 L13.155,8.731 C13.583,8.803 14.02,8.824 14.457,8.795 C17.853,8.968 21.245,9.201 24.633,9.493 C23.581,9.908 22.604,10.516 21.761,11.302 C20.375,10.793 18.349,11.466 17.972,13.03 C17.787,13.799 18.359,14.646 19.207,14.462 C19.669,14.362 20.068,14.036 20.46,13.788 C20.59,13.706 20.72,13.623 20.85,13.541 C20.788,14.058 20.812,14.585 20.938,15.094 C21.107,15.781 21.656,16.561 22.47,16.347 C23.158,16.165 23.396,15.376 23.399,14.745 C23.403,13.759 23.079,12.773 22.584,11.929 C22.576,11.915 22.566,11.905 22.557,11.892 C24.033,10.58 25.967,9.819 27.94,9.796 C28.37,9.838 28.801,9.88 29.231,9.924 C29.237,9.925 29.243,9.926 29.249,9.927 C29.256,9.928 29.262,9.927 29.269,9.928 C31.302,10.136 33.334,10.365 35.362,10.617 C37.454,10.876 39.543,11.16 41.63,11.466 C39.724,12.199 38.098,13.626 37.148,15.452 C35.522,15.508 34.169,16.858 34.093,18.486 C34.078,18.814 34.414,19.021 34.707,18.954 C35.611,18.746 36.435,18.305 37.106,17.678 C37.36,18.138 37.701,18.544 38.131,18.869 C38.656,19.266 39.647,19.769 40.07,18.958 C40.412,18.301 39.901,17.499 39.478,17.015 C39.071,16.549 38.527,16.207 37.936,16.026 C39.166,13.497 41.902,11.82 44.727,11.894 C44.84,11.897 44.933,11.867 45.005,11.816 C45.077,11.867 45.17,11.897 45.283,11.894 C48.107,11.82 50.844,13.497 52.073,16.026 C51.504,16.2 50.979,16.524 50.576,16.964 C50.132,17.449 49.587,18.285 49.938,18.959 C50.345,19.74 51.297,19.295 51.819,18.913 C52.274,18.58 52.635,18.16 52.901,17.679 C53.571,18.306 54.396,18.747 55.3,18.955 C55.593,19.022 55.93,18.815 55.914,18.487 C55.837,16.86 54.484,15.51 52.859,15.453 C51.909,13.627 50.283,12.201 48.378,11.467 C52.929,10.802 57.495,10.245 62.071,9.797 C64.042,9.82 65.975,10.581 67.45,11.892 C67.441,11.905 67.431,11.915 67.423,11.929 C66.936,12.759 66.64,13.694 66.611,14.66 C66.592,15.313 66.817,16.157 67.537,16.347 C68.317,16.553 68.861,15.835 69.049,15.174 C69.199,14.648 69.227,14.089 69.159,13.542 C69.262,13.607 69.365,13.672 69.468,13.738 C69.859,13.985 70.27,14.324 70.723,14.449 C71.594,14.689 72.228,13.835 72.034,13.03 C71.657,11.466 69.63,10.793 68.245,11.302 C67.401,10.515 66.423,9.907 65.37,9.492 C68.748,9.2 72.131,8.967 75.518,8.794 C75.967,8.826 76.416,8.805 76.857,8.73 C78.554,8.852 80.111,9.805 80.989,11.274 C80.988,11.274 80.987,11.275 80.987,11.275 C79.786,12.033 79.051,13.281 78.953,14.695 C78.933,14.986 79.283,15.276 79.567,15.163 C80.668,14.722 81.479,13.887 81.88,12.828 C82.627,13.485 83.56,13.871 84.593,13.921 C84.934,13.938 85.111,13.599 85.061,13.307 C84.817,11.889 83.392,11.497 82.129,11.405 C82.121,11.361 82.11,11.317 82.089,11.272 C81.573,10.151 80.7,9.232 79.651,8.612 C81.879,8.53 84.109,8.474 86.338,8.442 C86.365,8.783 86.477,9.125 86.61,9.431 C86.861,10.007 87.177,10.638 87.705,11.009 C88.709,11.714 90.231,11.016 89.846,9.685 C89.607,8.859 88.898,8.137 88.122,7.601 C88.251,7.555 88.375,7.509 88.472,7.453 C89.235,7.01 89.776,6.25 89.983,5.396 Z M69.705,4.816 C69.82,4.799 70.068,4.749 70.189,4.778 C70.342,4.815 70.354,4.791 70.249,4.941 C70.003,5.292 69.273,5.345 68.893,5.323 C68.716,5.313 68.542,5.281 68.374,5.231 C68.552,5.144 68.735,5.065 68.926,5.003 C69.18,4.92 69.442,4.855 69.705,4.816 Z M67.192,3.383 C67.221,3.157 67.277,2.93 67.364,2.719 C67.409,2.611 67.458,2.532 67.523,2.437 C67.556,2.389 67.602,2.176 67.555,2.421 C67.451,2.964 67.333,3.495 67.185,4.018 C67.164,3.807 67.165,3.593 67.192,3.383 Z M52.481,2.897 C52.566,3.351 52.524,3.815 52.368,4.25 C52.224,3.812 52.268,3.306 52.481,2.897 Z M55.364,4.656 C54.751,5.037 54.03,5.202 53.309,5.125 C53.923,4.739 54.645,4.579 55.364,4.656 Z M37.519,2.897 C37.733,3.307 37.776,3.812 37.632,4.25 C37.476,3.815 37.433,3.351 37.519,2.897 Z M34.636,4.656 C35.354,4.578 36.077,4.739 36.691,5.125 C35.97,5.202 35.25,5.037 34.636,4.656 Z M22.796,3.285 C22.837,3.526 22.842,3.774 22.816,4.019 C22.669,3.495 22.551,2.964 22.444,2.42 C22.442,2.408 22.44,2.4 22.438,2.391 C22.504,2.459 22.556,2.541 22.598,2.625 C22.7,2.825 22.759,3.066 22.796,3.285 Z M19.75,4.941 C19.561,4.673 20.022,4.783 20.2,4.805 C20.47,4.838 20.736,4.899 20.997,4.979 C21.215,5.046 21.422,5.134 21.624,5.232 C21.479,5.275 21.33,5.306 21.177,5.32 C20.777,5.355 20.01,5.309 19.75,4.941 Z M6.887,12.53 C6.74,12.61 6.588,12.68 6.43,12.738 C6.568,12.65 6.722,12.582 6.887,12.53 Z M9.854,13.705 C9.476,13.373 9.18,12.947 9.005,12.476 C9.378,12.818 9.668,13.238 9.854,13.705 Z M19.809,13.047 C19.615,13.17 19.337,13.442 19.11,13.47 C18.701,13.521 18.999,13.013 19.131,12.845 C19.63,12.211 20.459,11.984 21.219,12.154 C20.749,12.452 20.279,12.749 19.809,13.047 Z M22.259,15.377 C21.94,15.556 21.8,14.469 21.789,14.314 C21.754,13.82 21.83,13.347 21.986,12.887 C22.155,13.251 22.283,13.63 22.355,14.031 C22.4,14.279 22.579,15.197 22.259,15.377 Z M9.226,2.067 C9.58,2.851 9.609,3.77 9.31,4.579 C8.929,3.776 8.911,2.875 9.226,2.067 Z M6.802,5.293 C6.578,5.154 6.649,5.207 6.831,5.171 C7.034,5.131 7.311,5.187 7.515,5.211 C7.676,5.229 7.835,5.258 7.994,5.29 C7.601,5.464 7.16,5.514 6.802,5.293 Z M1.358,6.017 C1.816,6.217 2.228,6.505 2.565,6.869 C2.427,6.809 2.285,6.749 2.145,6.68 C1.824,6.521 1.561,6.292 1.358,6.017 Z M2.402,9.268 C2.224,9.624 1.999,10.149 1.594,10.297 C1.467,10.343 1.265,10.367 1.152,10.276 C0.947,10.112 1.15,9.789 1.257,9.617 C1.61,9.051 2.129,8.59 2.702,8.228 C2.759,8.568 2.537,8.999 2.402,9.268 Z M35.234,17.754 C35.502,17.143 36.05,16.671 36.696,16.493 C36.674,16.575 36.674,16.649 36.691,16.715 C36.273,17.165 35.786,17.514 35.234,17.754 Z M39.153,18.292 C39.172,18.335 39.178,18.367 39.183,18.392 C39.107,18.34 38.967,18.267 38.974,18.271 C38.78,18.159 38.605,18.024 38.444,17.867 C38.196,17.625 38.002,17.346 37.86,17.037 C38.425,17.276 38.884,17.701 39.153,18.292 Z M51.607,17.817 C51.433,17.994 51.24,18.147 51.026,18.271 C50.961,18.308 50.887,18.356 50.814,18.387 C50.822,18.355 50.833,18.323 50.847,18.292 C51.118,17.702 51.575,17.277 52.14,17.038 C52.007,17.325 51.832,17.588 51.607,17.817 Z M54.766,17.754 C54.214,17.513 53.727,17.165 53.309,16.715 C53.326,16.649 53.326,16.574 53.304,16.493 C53.95,16.671 54.498,17.143 54.766,17.754 Z M68.217,14.232 C68.209,14.404 68.087,15.549 67.741,15.377 C67.438,15.226 67.595,14.335 67.631,14.114 C67.701,13.683 67.833,13.274 68.014,12.884 C68.162,13.319 68.24,13.765 68.217,14.232 Z M70.868,12.845 C70.958,12.959 71.285,13.459 70.979,13.511 C70.804,13.541 70.326,13.132 70.191,13.047 C69.721,12.749 69.251,12.452 68.781,12.154 C69.54,11.984 70.37,12.211 70.868,12.845 Z M80.146,13.705 C80.332,13.238 80.622,12.818 80.995,12.476 C80.82,12.947 80.524,13.373 80.146,13.705 Z M83.111,12.529 C83.277,12.581 83.433,12.65 83.571,12.739 C83.412,12.68 83.259,12.61 83.111,12.529 Z M80.774,2.067 C81.089,2.875 81.071,3.777 80.69,4.579 C80.392,3.77 80.42,2.851 80.774,2.067 Z M83.169,5.171 C83.351,5.207 83.422,5.154 83.198,5.293 C82.84,5.514 82.399,5.464 82.006,5.29 C82.164,5.258 82.324,5.229 82.485,5.211 C82.689,5.187 82.966,5.131 83.169,5.171 Z M88.697,9.551 C88.81,9.717 89.051,10.053 88.886,10.252 C88.796,10.36 88.582,10.345 88.462,10.313 C88.021,10.194 87.784,9.641 87.598,9.269 C87.467,9.006 87.238,8.569 87.291,8.227 C87.839,8.574 88.331,9.013 88.697,9.551 Z M87.855,6.68 C87.714,6.75 87.572,6.81 87.434,6.871 C87.771,6.507 88.184,6.218 88.642,6.018 C88.438,6.292 88.175,6.52 87.855,6.68 Z" id="Shape" fill="#555555" fill-rule="nonzero"></path>
            </g>
        </g>
    </g>
</svg>