<?xml version="1.0" encoding="UTF-8"?>
<svg width="52px" height="60px" viewBox="0 0 52 60" version="1.1" xmlns="http://www.w3.org/2000/svg" xmlns:xlink="http://www.w3.org/1999/xlink">
    <!-- Generator: Sketch 43.2 (39069) - http://www.bohemiancoding.com/sketch -->
    <title>leaf</title>
    <desc>Created with Sketch.</desc>
    <defs></defs>
    <g id="Page-1" stroke="none" stroke-width="1" fill="none" fill-rule="evenodd">
        <g id="leaf" fill-rule="nonzero" fill="#555555">
            <path d="M51.041,51.044 C46.398,50.334 36.406,49.69 26.13,49.417 C26.291,45.161 26.391,39.513 26.452,33.808 C26.842,33.832 27.234,33.861 27.614,33.861 C40.756,33.861 45.075,18.974 45.117,18.824 C45.165,18.654 45.119,18.47 44.996,18.343 C44.874,18.216 44.694,18.161 44.52,18.203 C32.808,20.982 28.201,27.167 26.482,30.664 C26.507,27.661 26.523,24.711 26.533,22.016 C31.408,21.604 36.356,16.204 37.251,10.188 C37.276,10.021 37.216,9.853 37.09,9.741 C36.965,9.629 36.79,9.588 36.627,9.632 C30.431,11.302 27.726,14.921 26.544,17.736 C26.551,13.563 26.544,10.544 26.542,9.79 C27.665,9.339 28.44,8.433 28.709,7.168 C29.189,4.913 28.075,1.98 26.062,0.195 C25.958,0.103 25.823,0.061 25.683,0.071 C25.545,0.084 25.419,0.154 25.334,0.263 C23.567,2.542 22.85,5.715 23.63,7.805 C23.995,8.784 24.66,9.438 25.541,9.761 C25.543,10.477 25.551,13.574 25.544,17.852 C24.388,15.021 21.695,11.324 15.412,9.63 C15.248,9.586 15.074,9.627 14.949,9.739 C14.823,9.851 14.762,10.019 14.788,10.186 C15.685,16.213 20.65,21.622 25.533,22.016 C25.524,24.693 25.508,27.62 25.483,30.599 C23.74,27.092 19.119,20.965 7.476,18.202 C7.304,18.16 7.122,18.215 7,18.342 C6.877,18.469 6.831,18.653 6.879,18.823 C6.921,18.973 11.24,33.859 24.382,33.86 L24.383,33.86 C24.733,33.86 25.094,33.833 25.452,33.811 C25.39,39.514 25.291,45.155 25.13,49.391 C15.991,49.17 6.758,49.25 0.981,49.848 C0.707,49.876 0.507,50.121 0.536,50.397 C0.563,50.671 0.81,50.865 1.085,50.842 C6.827,50.248 16.004,50.168 25.091,50.387 C25.01,52.281 24.915,53.834 24.803,54.905 C18.109,54.893 11.687,55.128 8.525,55.792 C8.254,55.849 8.082,56.114 8.138,56.384 C8.187,56.62 8.395,56.781 8.626,56.781 C8.66,56.781 8.695,56.778 8.73,56.77 C15.324,55.387 39.152,55.911 45.428,56.766 C45.697,56.801 45.953,56.612 45.99,56.338 C46.028,56.065 45.836,55.813 45.562,55.775 C42.457,55.352 34.039,54.952 25.808,54.909 C25.916,53.823 26.01,52.283 26.089,50.413 C36.318,50.684 46.269,51.325 50.89,52.032 C50.915,52.036 50.941,52.038 50.966,52.038 C51.208,52.038 51.421,51.86 51.459,51.614 C51.502,51.341 51.314,51.085 51.041,51.044 Z M36.121,10.819 C35.026,15.922 30.766,20.519 26.663,21.011 C26.86,19.182 28.117,13.309 36.121,10.819 Z M15.919,10.819 C23.923,13.309 25.181,19.182 25.378,21.011 C21.275,20.519 17.014,15.921 15.919,10.819 Z M24.384,32.861 L24.384,32.861 C19.207,32.86 14.857,30.47 11.452,25.757 C9.628,23.23 8.578,20.673 8.12,19.394 C15.832,21.407 20.113,25.001 22.365,27.712 C24.199,29.92 25.011,31.905 25.321,32.836 C25.006,32.852 24.693,32.861 24.384,32.861 Z M29.632,27.711 C31.884,25.001 36.165,21.406 43.877,19.393 C43.419,20.672 42.369,23.229 40.545,25.757 C36.938,30.752 32.303,33.149 26.676,32.835 C26.986,31.904 27.798,29.919 29.632,27.711 Z M24.567,7.456 C23.949,5.798 24.467,3.298 25.797,1.329 C27.281,2.887 28.102,5.217 27.731,6.96 C27.585,7.641 27.185,8.521 26.103,8.916 C25.375,8.73 24.86,8.24 24.567,7.456 Z" id="Shape"></path>
            <path d="M35.354,58.936 C32.419,58.333 19.993,58.245 13.191,58.776 C12.916,58.797 12.71,59.039 12.732,59.314 C12.753,59.589 13.003,59.793 13.269,59.773 C19.865,59.257 32.34,59.337 35.152,59.916 C35.186,59.923 35.219,59.926 35.254,59.926 C35.486,59.926 35.694,59.764 35.743,59.528 C35.798,59.255 35.624,58.992 35.354,58.936 Z" id="Shape"></path>
        </g>
    </g>
</svg>